<svg id="svg" xmlns="http://www.w3.org/2000/svg" xmlns:xlink="http://www.w3.org/1999/xlink" width="400" height="400" viewBox="0, 0, 400,400" version="1.1"><g id="svgg"><path id="path0" d="M45.255 12.466 C 2.869 38.309,0.047 50.019,0.047 200.000 C 0.047 400.947,-0.947 399.953,200.000 399.953 C 400.947 399.953,399.953 400.947,399.953 200.000 C 399.953 50.019,397.131 38.309,354.745 12.466 C 323.723 -6.448,76.277 -6.448,45.255 12.466 M347.159 52.841 C 371.223 76.905,371.223 323.095,347.159 347.159 C 323.095 371.223,76.905 371.223,52.841 347.159 C 28.777 323.095,28.777 76.905,52.841 52.841 C 76.905 28.777,323.095 28.777,347.159 52.841 M87.500 121.875 L 87.500 137.500 200.000 137.500 L 312.500 137.500 312.500 121.875 L 312.500 106.250 200.000 106.250 L 87.500 106.250 87.500 121.875 M87.500 196.875 L 87.500 212.500 200.000 212.500 L 312.500 212.500 312.500 196.875 L 312.500 181.250 200.000 181.250 L 87.500 181.250 87.500 196.875 M87.500 271.875 L 87.500 287.500 200.000 287.500 L 312.500 287.500 312.500 271.875 L 312.500 256.250 200.000 256.250 L 87.500 256.250 87.500 271.875 " stroke="none" fill="#000000" fill-rule="evenodd"></path></g></svg>